<?xml version="1.0" encoding="iso-8859-1"?>
<!-- Generator: Adobe Illustrator 19.0.0, SVG Export Plug-In . SVG Version: 6.00 Build 0)  -->
<svg xmlns="http://www.w3.org/2000/svg" xmlns:xlink="http://www.w3.org/1999/xlink" version="1.1" id="Layer_1" x="0px" y="0px" viewBox="0 0 512.002 512.002" style="enable-background:new 0 0 512.002 512.002;" xml:space="preserve">
<polygon style="fill:#FFDC5E;" points="140.013,214.565 504.398,214.565 504.398,456.648 459.278,456.648 419.069,456.648   7.606,456.648 7.606,214.565 95.656,214.565 "/>
<polygon style="opacity:0.25;fill:#CCA61C;enable-background:new    ;" points="458.058,214.565 458.058,410.957 412.938,410.957   372.729,410.957 7.606,410.957 7.606,456.648 419.069,456.648 459.278,456.648 504.398,456.648 504.398,214.565 "/>
<circle style="fill:#2D2128;" cx="256.002" cy="78.687" r="23.329"/>
<polygon style="opacity:0.39;fill:#FFFFFF;enable-background:new    ;" points="331.016,214.565 380.982,214.565 188.348,456.648   182.161,456.648 176.648,456.648 120.226,456.648 312.859,214.565 324.933,214.565 "/>
<path d="M145.815,389.492c19.559,0,35.473-15.913,35.473-35.472v-36.825c0-19.56-15.913-35.473-35.473-35.473  c-19.559,0-35.472,15.913-35.472,35.473v36.825C110.343,373.579,126.255,389.492,145.815,389.492z M125.551,317.193  c0-11.174,9.09-20.265,20.264-20.265c11.174,0,20.265,9.091,20.265,20.265v36.825c0,11.174-9.09,20.264-20.265,20.264  c-11.174,0-20.264-9.09-20.264-20.264V317.193z"/>
<path d="M209.661,381.888V343.18h12.805c16.945,0,30.73-13.785,30.73-30.73s-13.785-30.731-30.73-30.731h-20.409  c-4.199,0-7.604,3.404-7.604,7.604v92.564c0,4.2,3.405,7.604,7.604,7.604S209.661,386.088,209.661,381.888z M237.989,312.451  c0,8.558-6.963,15.522-15.522,15.522h-12.805v-31.044h12.805C231.026,296.928,237.989,303.891,237.989,312.451z"/>
<path d="M304.342,296.928c4.199,0,7.604-3.404,7.604-7.604c0-4.2-3.405-7.604-7.604-7.604h-32.318c-4.199,0-7.604,3.404-7.604,7.604  v92.564c0,4.2,3.405,7.604,7.604,7.604h32.318c4.199,0,7.604-3.404,7.604-7.604s-3.405-7.604-7.604-7.604h-24.714v-31.073h24.714  c4.199,0,7.604-3.404,7.604-7.604s-3.405-7.604-7.604-7.604h-24.714v-31.074h24.714V296.928z"/>
<path d="M343.836,381.888v-61.497l33.851,65.009c1.331,2.556,3.958,4.093,6.743,4.093c0.599,0,1.206-0.071,1.81-0.219  c3.403-0.832,5.796-3.883,5.796-7.386v-92.564c0-4.2-3.405-7.604-7.604-7.604c-4.199,0-7.604,3.404-7.604,7.604v61.497  l-33.851-65.009c-1.619-3.106-5.15-4.707-8.553-3.874c-3.403,0.833-5.796,3.883-5.796,7.386v92.564c0,4.2,3.405,7.604,7.604,7.604  C340.431,389.492,343.836,386.088,343.836,381.888z"/>
<path d="M419.069,449.044H15.21V222.169h80.446c4.199,0,7.604-3.404,7.604-7.604c0-4.2-3.405-7.604-7.604-7.604H32.963  l101.234-66.718c3.507-2.311,4.476-7.028,2.165-10.534c-2.312-3.507-7.028-4.477-10.533-2.166L3.422,208.215  c-0.009,0.006-0.016,0.013-0.025,0.018c-0.147,0.098-0.287,0.205-0.427,0.313c-0.063,0.049-0.131,0.093-0.192,0.143  c-0.08,0.066-0.153,0.139-0.23,0.208c-0.452,0.404-0.851,0.85-1.185,1.332c-0.02,0.029-0.045,0.057-0.065,0.087  c-0.085,0.127-0.16,0.259-0.237,0.389c-0.05,0.084-0.103,0.165-0.15,0.25c-0.047,0.087-0.085,0.178-0.129,0.268  c-0.066,0.135-0.135,0.269-0.194,0.409c-0.014,0.034-0.024,0.07-0.039,0.104c-0.217,0.54-0.369,1.112-0.457,1.706  c-0.016,0.107-0.038,0.214-0.049,0.322c-0.008,0.077-0.008,0.156-0.014,0.233c-0.013,0.177-0.026,0.356-0.027,0.534  c0,0.01-0.002,0.02-0.002,0.03v242.083c0,4.2,3.405,7.604,7.604,7.604h411.463c4.199,0,7.604-3.404,7.604-7.604  S423.269,449.044,419.069,449.044z"/>
<path d="M511.971,213.949c-0.043-0.527-0.137-1.038-0.281-1.53c-0.007-0.024-0.011-0.049-0.019-0.073  c-0.054-0.176-0.119-0.347-0.185-0.517c-0.023-0.061-0.042-0.123-0.067-0.182c-0.057-0.137-0.124-0.268-0.189-0.4  c-0.045-0.091-0.084-0.186-0.133-0.276c-0.053-0.098-0.114-0.191-0.17-0.286c-0.071-0.119-0.138-0.239-0.216-0.355  c-0.042-0.063-0.09-0.121-0.134-0.181c-0.1-0.141-0.2-0.281-0.31-0.416c-0.025-0.03-0.054-0.058-0.08-0.088  c-0.216-0.253-0.452-0.493-0.705-0.72c-0.084-0.076-0.163-0.156-0.25-0.228c-0.035-0.029-0.075-0.055-0.112-0.083  c-0.164-0.13-0.331-0.257-0.505-0.373c-0.005-0.004-0.01-0.008-0.015-0.011L276.228,54.068c-0.995-0.659-2.089-1.045-3.198-1.192  c-4.887-3.235-10.738-5.125-17.025-5.125c-7.057,0-13.565,2.381-18.777,6.374l-78.417,51.682c-3.507,2.312-4.476,7.028-2.165,10.534  c1.461,2.218,3.885,3.421,6.356,3.421c1.437,0,2.888-0.407,4.177-1.255l57.938-38.184c0.855,16.297,14.382,29.293,30.887,29.293  c16.812,0,30.523-13.484,30.914-30.204l192.263,127.55H140.013c-4.199,0-7.604,3.404-7.604,7.604c0,4.2,3.405,7.604,7.604,7.604  h356.781v226.875h-37.515c-4.199,0-7.604,3.404-7.604,7.604c0,4.2,3.405,7.604,7.604,7.604h45.119c4.199,0,7.604-3.404,7.604-7.604  V214.565c0-0.007-0.001-0.013-0.001-0.02C512,214.345,511.987,214.147,511.971,213.949z M256.005,94.406  c-8.671,0-15.724-7.053-15.724-15.724s7.053-15.724,15.724-15.724c8.671,0,15.724,7.053,15.724,15.724  S264.676,94.406,256.005,94.406z"/>
<path d="M113.953,248.613c0-4.2-3.405-7.604-7.604-7.604H41.681c-4.199,0-7.604,3.404-7.604,7.604v62.007  c0,4.2,3.405,7.604,7.604,7.604s7.604-3.404,7.604-7.604v-54.403h57.063C110.548,256.216,113.953,252.812,113.953,248.613z"/>
<g>
</g>
<g>
</g>
<g>
</g>
<g>
</g>
<g>
</g>
<g>
</g>
<g>
</g>
<g>
</g>
<g>
</g>
<g>
</g>
<g>
</g>
<g>
</g>
<g>
</g>
<g>
</g>
<g>
</g>
</svg>
